<svg id="Layer_1" xmlns="http://www.w3.org/2000/svg" version="1.1" viewBox="0 0 264.42 158.72">
  <path fill="#ff642d" d="M42.27,106.38c.27-.27.78-.47,1.11-.69,15.4-.82,30.95-.11,46.41-.37,4.28-1.43,3.48-4.96.06-6.98-5.07-3-11.59-5.64-16.96-8.47-19.24-10.14-39.69-21.91-56.82-35.29-4.32-3.37-10.1-7.93-13.7-11.96-2.82-3.16-3.92-7.3,1.32-8.29l94.77.02c2.69.09,5.01-2.1,3.8-4.78-.6-1.33-2.5-2.11-3.77-2.71-8.47-3.97-16.98-7.12-25.35-11.59-4.26-2.28-11.01-5.84-14.5-9.01-2.36-2.14-2.26-5.22,1.01-6.17l124.68-.07c30.98,1.2,59.43,15.12,72.75,44.05,18.56,40.29.74,88.6-39.62,106.62-38.53,17.2-94.47,3.77-131.53-12.71-12.61-5.6-33.19-16.1-42.66-25.93-1.42-1.48-2.76-3.92-.99-5.69ZM147.09,40.91c-27.66,27.55-16.7,74.19,19.29,87.88,39.68,15.09,80.08-18.44,72.66-60.18-7.62-42.88-61.44-58.08-91.95-27.69Z"/>
  <path fill="#ff642d" d="M182.35,51.77c-.26-.26-.61-.93-.75-1.29-.91-2.33-.98-8.17,0-10.45s3.6-2.4,5.84-2.34c20.08.55,37.96,16.05,40.38,36.14.36,3,1.02,8.17-2.47,9.46-2.39.88-8.75.89-11.17.1-3.53-1.14-3.08-5.55-3.71-8.52-2.14-10.09-8.84-18.46-19.12-20.94-2.35-.57-7.43-.59-8.99-2.16Z"/>
</svg>